<svg width="512" height="512" viewBox="0 0 512 512" fill="none" xmlns="http://www.w3.org/2000/svg">
<path d="M512 256C512 114.512 397.504 0 256 0C114.512 0 0 114.496 0 256C0 396.234 113.539 512 256 512C397.875 512 512 396.879 512 256ZM256 30C380.617 30 482 131.383 482 256C482 301.586 468.441 345.402 443.297 382.516C342.328 273.906 169.855 273.711 68.7031 382.516C43.5586 345.402 30 301.586 30 256C30 131.383 131.383 30 256 30ZM87.4141 406.5C177.188 305.805 334.836 305.828 424.582 406.5C334.508 507.273 177.527 507.305 87.4141 406.5Z" fill="#FAFAFA"/>
<path d="M256 271C305.625 271 346 230.625 346 181V151C346 101.375 305.625 61 256 61C206.375 61 166 101.375 166 151V181C166 230.625 206.375 271 256 271ZM196 151C196 117.914 222.914 91 256 91C289.086 91 316 117.914 316 151V181C316 214.086 289.086 241 256 241C222.914 241 196 214.086 196 181V151Z" fill="#FAFAFA"/>
</svg>
