<?xml version="1.0" encoding="utf-8"?>
<!-- Generator: Adobe Illustrator 24.0.1, SVG Export Plug-In . SVG Version: 6.00 Build 0)  -->
<svg version="1.1" id="Camada_1" xmlns="http://www.w3.org/2000/svg" xmlns:xlink="http://www.w3.org/1999/xlink" x="0px" y="0px"
	 viewBox="0 0 1156 81" style="enable-background:new 0 0 1156 81;" xml:space="preserve">
<style type="text/css">
	.st0{fill:#262626;}
	.st1{fill:#FFFFFF;}
	.st2{fill:none;stroke:#FFFFFF;stroke-width:2;stroke-linecap:round;stroke-linejoin:round;stroke-miterlimit:10;}
	.st3{fill:none;stroke:#262626;stroke-width:2;stroke-linecap:round;stroke-linejoin:round;stroke-miterlimit:10;}
	.st4{fill:#FAFAFA;}
	.st5{fill:none;stroke:#262626;stroke-linecap:round;stroke-linejoin:round;stroke-miterlimit:10;}
	.st6{fill:none;stroke:#262626;stroke-miterlimit:10;}
	.st7{fill:none;stroke:#FAFAFA;stroke-width:1.5;stroke-linecap:round;stroke-linejoin:round;stroke-miterlimit:10;}
	.st8{fill:none;stroke:#FAFAFA;stroke-width:2;stroke-linecap:round;stroke-linejoin:round;stroke-miterlimit:10;}
	.st9{fill:none;stroke:#FAFAFA;stroke-linejoin:round;stroke-miterlimit:10;}
	.st10{fill:none;stroke:#FAFAFA;stroke-linecap:round;stroke-linejoin:round;stroke-miterlimit:10;}
</style>
<image style="display:none;overflow:visible;enable-background:new    ;" width="1156" height="81" xlink:href="C:\Users\PC\Downloads\f32b96f7-b.jpg" >
</image>
<rect class="st0" width="1156" height="81"/>
<g>
	<rect x="385.7" y="5" class="st1" width="3" height="67"/>
	<rect x="603.2" y="8" class="st1" width="3" height="67"/>
	<rect x="830.7" y="7" class="st1" width="3" height="67"/>
	<line class="st2" x1="178.7" y1="55" x2="196.7" y2="49"/>
	<path class="st2" d="M154.7,24c0,0-2-6,3-7c4,0,5,4,5,4l10,30"/>
	<circle class="st2" cx="172.2" cy="58.5" r="4.5"/>
	<rect x="172.7" y="28" transform="matrix(0.9472 -0.3205 0.3205 0.9472 -2.6733 60.7541)" class="st1" width="21" height="21"/>
	
		<rect x="166.9" y="15.4" transform="matrix(0.9472 -0.3205 0.3205 0.9472 2.0244 56.8864)" class="st1" width="13.8" height="13.8"/>
	<line class="st3" x1="171.7" y1="15" x2="173.7" y2="20"/>
	<line class="st3" x1="185.7" y1="44" x2="181.7" y2="34"/>
	<polyline class="st3" points="179.7,40 181.7,34 187.7,37 	"/>
	<g>
		<path class="st4" d="M209,34.6v-1.1l1.2-0.2v-8l-1.2-0.2V24h8.1v2.7h-1.4l-0.1-1.3H212v3h3.7v1.4H212v3.4h3.8l0.1-1.4h1.4v2.8
			C217.3,34.6,209,34.6,209,34.6z"/>
		<path class="st4" d="M218.6,34.6v-1.1l1.1-0.2V28l-1.2-0.2v-1.1h2.9l0.1,1.1c0.3-0.4,0.6-0.7,1-1c0.4-0.2,0.8-0.3,1.3-0.3
			c0.8,0,1.5,0.3,1.9,0.8s0.7,1.3,0.7,2.3v3.6l1.1,0.2v1.1h-4v-1.1l1-0.2v-3.6c0-0.6-0.1-1-0.4-1.3s-0.6-0.4-1.1-0.4
			c-0.4,0-0.7,0.1-0.9,0.2c-0.3,0.2-0.5,0.4-0.6,0.7v4.4l1,0.2v1.1L218.6,34.6L218.6,34.6z"/>
		<path class="st4" d="M231,34.7c-0.7,0-1.2-0.2-1.6-0.6c-0.4-0.4-0.6-1-0.6-1.8V28h-1.1v-1.3h1.2v-1.9h1.8v1.9h1.6V28h-1.6v4.4
			c0,0.3,0.1,0.6,0.2,0.7c0.1,0.2,0.3,0.2,0.6,0.2c0.1,0,0.3,0,0.5,0s0.3,0,0.4-0.1l0.2,1.3c-0.2,0.1-0.5,0.1-0.7,0.2
			S231.3,34.7,231,34.7z"/>
		<path class="st4" d="M233.5,34.6v-1.1l1.1-0.2V28l-1.2-0.2v-1.1h2.9l0.1,1v0.2c0.2-0.4,0.5-0.7,0.8-1s0.7-0.3,1.1-0.3
			c0.1,0,0.3,0,0.4,0c0.2,0,0.3,0.1,0.4,0.1l-0.2,1.7l-1-0.1c-0.3,0-0.6,0-0.8,0.2s-0.4,0.4-0.5,0.6v4.1l1.1,0.2v1.1L233.5,34.6
			L233.5,34.6z"/>
		<path class="st4" d="M243.4,34.7c-0.7,0-1.4-0.2-2-0.5s-1-0.8-1.3-1.4c-0.3-0.6-0.5-1.3-0.5-2v-0.3c0-0.8,0.2-1.5,0.5-2.1
			s0.7-1.1,1.2-1.4s1.1-0.5,1.8-0.5s1.3,0.1,1.8,0.4s0.9,0.7,1.1,1.2s0.4,1.2,0.4,1.9v1.1h-4.7l0,0c0,0.4,0.1,0.8,0.3,1.1
			c0.2,0.3,0.4,0.6,0.7,0.8s0.6,0.3,1,0.3s0.8-0.1,1.2-0.2s0.7-0.3,1-0.5l0.6,1.2c-0.3,0.3-0.7,0.5-1.2,0.7S244.1,34.7,243.4,34.7z
			 M241.7,29.8h3.1v-0.2c0-0.3-0.1-0.7-0.2-0.9c-0.1-0.3-0.3-0.5-0.5-0.6s-0.5-0.2-0.8-0.2s-0.6,0.1-0.8,0.2s-0.4,0.4-0.5,0.7
			C241.8,29.1,241.7,29.4,241.7,29.8L241.7,29.8z"/>
		<path class="st4" d="M251.2,37.8c-0.4,0-0.8-0.1-1.3-0.2c-0.5-0.1-0.9-0.3-1.3-0.4l0.4-1.3c0.3,0.1,0.7,0.3,1,0.3s0.7,0.1,1.1,0.1
			c0.6,0,1-0.2,1.3-0.5s0.4-0.8,0.4-1.4v-0.6c-0.2,0.3-0.5,0.6-0.9,0.7c-0.3,0.2-0.7,0.2-1.2,0.2c-0.6,0-1.2-0.2-1.7-0.5
			s-0.8-0.8-1.1-1.4c-0.2-0.6-0.4-1.3-0.4-2v-0.2c0-0.8,0.1-1.6,0.4-2.2c0.2-0.6,0.6-1.1,1.1-1.5s1-0.5,1.7-0.5
			c0.5,0,0.9,0.1,1.3,0.3c0.4,0.2,0.7,0.5,0.9,0.8l0.1-1h1.6v7.7c0,0.7-0.1,1.3-0.4,1.8c-0.3,0.5-0.7,0.9-1.2,1.2
			C252.6,37.7,251.9,37.8,251.2,37.8z M251.4,33.3c0.4,0,0.7-0.1,0.9-0.2c0.3-0.2,0.5-0.4,0.6-0.7v-3.5c-0.2-0.3-0.4-0.5-0.6-0.7
			c-0.3-0.2-0.6-0.2-0.9-0.2c-0.4,0-0.7,0.1-1,0.3c-0.3,0.2-0.5,0.6-0.6,1s-0.2,0.9-0.2,1.4v0.2c0,0.7,0.1,1.3,0.4,1.8
			S250.7,33.3,251.4,33.3z M254.5,28.1l-0.8-1.4h2v1.1L254.5,28.1z"/>
		<path class="st4" d="M259,34.7c-0.8,0-1.4-0.2-1.9-0.6s-0.7-1-0.7-1.7c0-0.5,0.1-0.9,0.4-1.3s0.7-0.7,1.2-0.9
			c0.5-0.2,1.2-0.3,1.9-0.3h1.2v-0.7c0-0.4-0.1-0.8-0.4-1s-0.6-0.4-1.1-0.4c-0.3,0-0.5,0-0.7,0.1c-0.2,0.1-0.4,0.2-0.6,0.3l-0.2,1.1
			h-1.4v-2c0.4-0.3,0.8-0.5,1.3-0.6s1-0.2,1.6-0.2c1,0,1.8,0.2,2.4,0.7s0.9,1.1,0.9,2v3.5c0,0.1,0,0.2,0,0.3s0,0.2,0,0.3l0.8,0.1
			v1.1h-2.4c0-0.2-0.1-0.3-0.1-0.5s-0.1-0.3-0.1-0.5c-0.3,0.3-0.6,0.6-1,0.8C259.9,34.6,259.5,34.7,259,34.7z M259.4,33.3
			c0.4,0,0.7-0.1,1-0.3c0.3-0.2,0.6-0.4,0.7-0.7V31h-1.2c-0.6,0-1,0.1-1.2,0.4c-0.3,0.3-0.4,0.6-0.4,0.9s0.1,0.5,0.3,0.7
			C258.8,33.2,259.1,33.3,259.4,33.3z"/>
		<path class="st4" d="M264.8,34.6v-1.1l1.1-0.2V28l-1.2-0.2v-1.1h2.9l0.1,1c0.3-0.4,0.6-0.7,1-0.9c0.4-0.2,0.8-0.3,1.4-0.3
			c0.5,0,1,0.1,1.3,0.3c0.4,0.2,0.6,0.6,0.8,1.1c0.2-0.4,0.6-0.8,1-1s0.9-0.4,1.4-0.4c0.8,0,1.4,0.3,1.9,0.8s0.7,1.4,0.7,2.5v3.4
			l1.1,0.2v1.1h-4v-1.1l1-0.2v-3.5c0-0.7-0.1-1.1-0.3-1.4c-0.2-0.3-0.6-0.4-1-0.4s-0.7,0.1-1,0.4c-0.3,0.3-0.4,0.6-0.5,1v3.9l1,0.2
			v1.1h-3.8v-1.1l1-0.2v-3.5c0-0.6-0.1-1.1-0.3-1.4c-0.2-0.3-0.6-0.4-1-0.4s-0.7,0.1-0.9,0.2c-0.2,0.1-0.4,0.4-0.6,0.6v4.4l1,0.2
			v1.1h-4.1V34.6z"/>
		<path class="st4" d="M282.7,34.7c-0.8,0-1.4-0.2-2-0.5s-1-0.8-1.3-1.4c-0.3-0.6-0.4-1.3-0.4-2.1v-0.2c0-0.8,0.1-1.5,0.4-2.1
			s0.7-1.1,1.3-1.4s1.2-0.5,1.9-0.5c0.8,0,1.4,0.2,2,0.5c0.5,0.3,1,0.8,1.3,1.4s0.4,1.3,0.4,2.1v0.2c0,0.8-0.1,1.5-0.4,2.1
			c-0.3,0.6-0.7,1.1-1.3,1.4C284.1,34.6,283.4,34.7,282.7,34.7z M282.7,33.3c0.4,0,0.7-0.1,1-0.3s0.5-0.5,0.6-0.9
			c0.1-0.4,0.2-0.8,0.2-1.4v-0.2c0-0.5-0.1-1-0.2-1.3s-0.3-0.7-0.6-0.9s-0.6-0.3-1-0.3s-0.7,0.1-1,0.3c-0.3,0.2-0.5,0.5-0.6,0.9
			s-0.2,0.8-0.2,1.3v0.2c0,0.5,0.1,1,0.2,1.4c0.1,0.4,0.3,0.7,0.6,0.9C281.9,33.2,282.3,33.3,282.7,33.3z"/>
		<path class="st4" d="M290.7,34.7c-0.6,0-1.1-0.1-1.6-0.2c-0.5-0.1-1-0.3-1.5-0.5v-2.1h1.3l0.3,1.1c0.2,0.1,0.4,0.2,0.6,0.2
			c0.2,0.1,0.5,0.1,0.7,0.1c0.5,0,0.9-0.1,1.1-0.3s0.3-0.4,0.3-0.7s-0.1-0.5-0.3-0.7c-0.2-0.2-0.7-0.4-1.3-0.5
			c-0.9-0.2-1.6-0.5-2.1-0.9c-0.4-0.4-0.7-0.9-0.7-1.5c0-0.4,0.1-0.8,0.3-1.2c0.2-0.4,0.6-0.6,1-0.8c0.5-0.2,1-0.3,1.7-0.3
			c0.6,0,1.1,0.1,1.6,0.2s0.9,0.3,1.2,0.5v2H292l-0.2-1c-0.2-0.1-0.3-0.2-0.5-0.2s-0.4-0.1-0.7-0.1c-0.4,0-0.7,0.1-1,0.3
			s-0.4,0.4-0.4,0.7c0,0.2,0,0.3,0.1,0.4s0.2,0.2,0.4,0.3c0.2,0.1,0.5,0.2,1,0.3c1,0.2,1.8,0.6,2.2,0.9s0.7,0.9,0.7,1.5
			c0,0.7-0.3,1.3-0.8,1.7S291.8,34.7,290.7,34.7z"/>
		<path class="st4" d="M209,52.6v-1.1l1.2-0.2v-8l-1.2-0.2V42h8.1v2.7h-1.4l-0.1-1.3H212v3h3.7v1.4H212v3.4h3.8l0.1-1.4h1.4v2.8
			C217.3,52.6,209,52.6,209,52.6z"/>
		<path class="st4" d="M218.6,52.6v-1.1l1.1-0.2V46l-1.2-0.2v-1.1h2.9l0.1,1c0.3-0.4,0.6-0.7,1-0.9s0.8-0.3,1.4-0.3
			c0.5,0,1,0.1,1.3,0.3c0.4,0.2,0.6,0.6,0.8,1.1c0.2-0.4,0.6-0.8,1-1c0.4-0.3,0.9-0.4,1.4-0.4c0.8,0,1.4,0.3,1.9,0.8
			s0.7,1.4,0.7,2.5v3.4l1.1,0.2v1.1h-4v-1.1l1-0.2v-3.5c0-0.7-0.1-1.1-0.3-1.4s-0.6-0.4-1-0.4s-0.7,0.1-1,0.4s-0.4,0.6-0.5,1v3.9
			l1,0.2v1.1h-3.8v-1.1l1-0.2v-3.5c0-0.6-0.1-1.1-0.3-1.4c-0.2-0.3-0.6-0.4-1-0.4s-0.7,0.1-0.9,0.2s-0.4,0.4-0.6,0.6v4.4l1,0.2v1.1
			h-4.1V52.6z"/>
		<path class="st4" d="M239.6,52.7c-0.7,0-1.2-0.2-1.6-0.6c-0.4-0.4-0.6-1-0.6-1.8V46h-1.2v-1.3h1.2v-1.9h1.8v1.9h1.6V46h-1.6v4.4
			c0,0.3,0.1,0.6,0.2,0.7c0.1,0.2,0.3,0.2,0.6,0.2c0.1,0,0.3,0,0.5,0s0.3,0,0.4-0.1l0.2,1.3c-0.2,0.1-0.5,0.1-0.7,0.2
			S239.9,52.7,239.6,52.7z"/>
		<path class="st4" d="M245.6,52.7c-0.8,0-1.4-0.2-2-0.5c-0.5-0.3-1-0.8-1.3-1.4c-0.3-0.6-0.4-1.3-0.4-2.1v-0.2
			c0-0.8,0.1-1.5,0.4-2.1s0.7-1.1,1.3-1.4s1.2-0.5,1.9-0.5c0.8,0,1.4,0.2,2,0.5c0.5,0.3,1,0.8,1.3,1.4c0.3,0.6,0.4,1.3,0.4,2.1v0.2
			c0,0.8-0.1,1.5-0.4,2.1c-0.3,0.6-0.7,1.1-1.3,1.4C247,52.6,246.3,52.7,245.6,52.7z M245.6,51.3c0.4,0,0.7-0.1,1-0.3
			s0.5-0.5,0.6-0.9s0.2-0.8,0.2-1.4v-0.2c0-0.5-0.1-1-0.2-1.3s-0.3-0.7-0.6-0.9s-0.6-0.3-1-0.3s-0.7,0.1-1,0.3s-0.5,0.5-0.6,0.9
			s-0.2,0.8-0.2,1.3v0.2c0,0.5,0.1,1,0.2,1.4c0.1,0.4,0.3,0.7,0.6,0.9C244.8,51.2,245.2,51.3,245.6,51.3z"/>
		<path class="st4" d="M253.5,52.7c-0.6,0-1.2-0.2-1.6-0.5s-0.8-0.8-1-1.4c-0.2-0.6-0.4-1.3-0.4-2v-0.2c0-0.8,0.1-1.6,0.4-2.2
			c0.2-0.6,0.6-1.1,1-1.5c0.5-0.4,1-0.5,1.6-0.5c0.5,0,0.9,0.1,1.2,0.3s0.6,0.4,0.9,0.7v-3l-1.2-0.2v-1.1h1.2h1.8v10.1l1.1,0.2v1.1
			h-2.7l-0.1-1c-0.2,0.4-0.6,0.6-0.9,0.8C254.4,52.7,254,52.7,253.5,52.7z M254,51.3c0.4,0,0.7-0.1,0.9-0.2c0.3-0.2,0.5-0.4,0.6-0.7
			v-3.5c-0.2-0.3-0.4-0.5-0.6-0.7c-0.3-0.2-0.6-0.2-0.9-0.2c-0.4,0-0.7,0.1-1,0.3s-0.4,0.6-0.6,1c-0.1,0.4-0.2,0.9-0.2,1.4v0.2
			c0,0.7,0.1,1.3,0.4,1.8C253,51.1,253.4,51.3,254,51.3z"/>
		<path class="st4" d="M263,52.7c-0.8,0-1.4-0.2-2-0.5c-0.5-0.3-1-0.8-1.3-1.4c-0.3-0.6-0.4-1.3-0.4-2.1v-0.2c0-0.8,0.1-1.5,0.4-2.1
			s0.7-1.1,1.3-1.4s1.2-0.5,1.9-0.5c0.8,0,1.4,0.2,2,0.5c0.5,0.3,1,0.8,1.3,1.4c0.3,0.6,0.4,1.3,0.4,2.1v0.2c0,0.8-0.1,1.5-0.4,2.1
			s-0.7,1.1-1.3,1.4C264.4,52.6,263.8,52.7,263,52.7z M263,51.3c0.4,0,0.7-0.1,1-0.3c0.3-0.2,0.5-0.5,0.6-0.9s0.2-0.8,0.2-1.4v-0.2
			c0-0.5-0.1-1-0.2-1.3c-0.1-0.3-0.3-0.7-0.6-0.9c-0.3-0.2-0.6-0.3-1-0.3s-0.7,0.1-1,0.3c-0.3,0.2-0.5,0.5-0.6,0.9s-0.2,0.8-0.2,1.3
			v0.2c0,0.5,0.1,1,0.2,1.4s0.3,0.7,0.6,0.9C262.2,51.2,262.6,51.3,263,51.3z"/>
		<path class="st4" d="M275.1,52.7c-0.8,0-1.4-0.2-2-0.5c-0.5-0.3-1-0.8-1.3-1.4c-0.3-0.6-0.4-1.3-0.4-2.1v-0.2
			c0-0.8,0.1-1.5,0.4-2.1s0.7-1.1,1.3-1.4s1.2-0.5,1.9-0.5c0.8,0,1.4,0.2,2,0.5c0.5,0.3,1,0.8,1.3,1.4c0.3,0.6,0.4,1.3,0.4,2.1v0.2
			c0,0.8-0.1,1.5-0.4,2.1c-0.3,0.6-0.7,1.1-1.3,1.4C276.5,52.6,275.9,52.7,275.1,52.7z M275.1,51.3c0.4,0,0.7-0.1,1-0.3
			c0.3-0.2,0.5-0.5,0.6-0.9s0.2-0.8,0.2-1.4v-0.2c0-0.5-0.1-1-0.2-1.3c-0.1-0.3-0.3-0.7-0.6-0.9c-0.3-0.2-0.6-0.3-1-0.3
			s-0.7,0.1-1,0.3c-0.3,0.2-0.5,0.5-0.6,0.9s-0.2,0.8-0.2,1.3v0.2c0,0.5,0.1,1,0.2,1.4c0.1,0.4,0.3,0.7,0.6,0.9
			C274.4,51.2,274.7,51.3,275.1,51.3z"/>
		<path class="st4" d="M283.5,52.6v-1.1l1.2-0.2v-8l-1.2-0.2V42h1.2h3.5c1.2,0,2.1,0.2,2.8,0.7c0.7,0.5,1,1.2,1,2.2
			c0,0.5-0.1,0.9-0.4,1.3c-0.3,0.4-0.7,0.7-1.2,0.9c0.4,0.1,0.8,0.3,1.1,0.5s0.5,0.5,0.7,0.9c0.2,0.3,0.2,0.7,0.2,1.1
			c0,1-0.3,1.8-1,2.3s-1.6,0.8-2.7,0.8h-5.2V52.6z M286.5,46.4h1.9c0.5,0,1-0.1,1.3-0.4s0.5-0.6,0.5-1.1s-0.2-0.9-0.5-1.2
			s-0.8-0.4-1.5-0.4h-1.7L286.5,46.4L286.5,46.4z M286.5,51.2h2.2c0.6,0,1.1-0.1,1.4-0.4c0.3-0.3,0.5-0.7,0.5-1.2
			c0-0.4-0.1-0.7-0.2-1s-0.3-0.5-0.6-0.6s-0.6-0.2-1-0.2h-2.3V51.2z"/>
		<path class="st4" d="M293.4,52.6v-1.1l1.1-0.2V46l-1.2-0.2v-1.1h2.9l0.1,1v0.2c0.2-0.4,0.5-0.7,0.8-1s0.7-0.3,1.1-0.3
			c0.1,0,0.3,0,0.4,0c0.2,0,0.3,0.1,0.4,0.1l-0.2,1.7l-1-0.1c-0.3,0-0.6,0-0.8,0.2s-0.4,0.4-0.5,0.6v4.1l1.1,0.2v1.1L293.4,52.6
			L293.4,52.6z"/>
		<path class="st4" d="M302.3,52.7c-0.8,0-1.4-0.2-1.9-0.6s-0.7-1-0.7-1.7c0-0.5,0.1-0.9,0.4-1.3c0.3-0.4,0.7-0.7,1.2-0.9
			s1.2-0.3,1.9-0.3h1.2v-0.7c0-0.4-0.1-0.8-0.4-1s-0.6-0.4-1.1-0.4c-0.3,0-0.5,0-0.7,0.1s-0.4,0.2-0.6,0.3l-0.2,1.1H300v-2
			c0.4-0.3,0.8-0.5,1.3-0.6s1-0.2,1.6-0.2c1,0,1.8,0.2,2.4,0.7s0.9,1.1,0.9,2v3.5c0,0.1,0,0.2,0,0.3s0,0.2,0,0.3l0.8,0.1v1.1h-2.4
			c0-0.2-0.1-0.3-0.1-0.5s-0.1-0.3-0.1-0.5c-0.3,0.3-0.6,0.6-1,0.8C303.2,52.6,302.8,52.7,302.3,52.7z M302.7,51.3
			c0.4,0,0.7-0.1,1-0.3s0.6-0.4,0.7-0.7V49h-1.2c-0.6,0-1,0.1-1.2,0.4c-0.3,0.3-0.4,0.6-0.4,0.9c0,0.3,0.1,0.5,0.3,0.7
			S302.4,51.3,302.7,51.3z"/>
		<path class="st4" d="M311.4,52.7c-0.6,0-1.1-0.1-1.6-0.2c-0.5-0.1-1-0.3-1.5-0.5v-2.1h1.3l0.3,1.1c0.2,0.1,0.4,0.2,0.6,0.2
			c0.2,0.1,0.5,0.1,0.7,0.1c0.5,0,0.9-0.1,1.1-0.3s0.3-0.4,0.3-0.7s-0.1-0.5-0.3-0.7c-0.2-0.2-0.7-0.3-1.3-0.5
			c-0.9-0.2-1.6-0.5-2.1-0.9c-0.4-0.4-0.7-0.9-0.7-1.5c0-0.4,0.1-0.8,0.3-1.2c0.2-0.4,0.6-0.6,1-0.8c0.5-0.2,1-0.3,1.7-0.3
			c0.6,0,1.1,0.1,1.6,0.2c0.5,0.1,0.9,0.3,1.2,0.5v2h-1.3l-0.2-1c-0.2-0.1-0.3-0.2-0.5-0.2s-0.4-0.1-0.7-0.1c-0.4,0-0.7,0.1-1,0.3
			c-0.2,0.2-0.4,0.4-0.4,0.7c0,0.2,0,0.3,0.1,0.4s0.2,0.2,0.4,0.3c0.2,0.1,0.5,0.2,1,0.3c1,0.2,1.8,0.6,2.2,0.9s0.7,0.9,0.7,1.5
			c0,0.7-0.3,1.3-0.8,1.7S312.5,52.7,311.4,52.7z"/>
		<path class="st4" d="M315.6,52.6v-1.1l1.1-0.2V46l-1.2-0.2v-1.1h3v6.6l1.1,0.2v1.1H315.6z M316.6,42.9v-1.7h1.9v1.7H316.6z"/>
		<path class="st4" d="M320.4,52.6v-1.1l1.1-0.2v-8.7l-1.2-0.2v-1.1h3v10.1l1.1,0.2v1.1h-4V52.6z"/>
	</g>
	<path class="st4" d="M441.7,25c2-0.7-2.7,1.4-1,1c1.3-0.3-1.3-0.3,0,0c0.4,0.1-0.4-0.2,0,0c0.8,0.4,0.3-0.9,0,0c-0.7,2.2-2,0-3,1
		c-0.6,0.6,4.4-3.7,4-3c-0.2,0.3,2.1,4.3,2.3,4.6l0.5,1c0.1,0.2,0.2,0.5,0.2,0.7v24.9c0,0.4-0.2,0.9-0.5,1.2l-1,1
		c-0.3,0.3-0.7,0.5-1.2,0.5h-18.6c-0.4,0-0.9-0.2-1.2-0.5l-1-1c-0.3-0.3-0.5-0.7-0.5-1.2V28.7c0-0.4,0.2-0.9,0.5-1.2l9-9
		c0.3-0.3,0.7-0.5,1.2-0.5h1.6c0.4,0,0.9,0.2,1.2,0.5L441.7,25z"/>
	<circle class="st0" cx="432.2" cy="28.5" r="2.5"/>
	<g>
		<path class="st0" d="M441.5,25.7c-0.3,0-0.7-0.1-1-0.3c-2.1-1-4.1-4-4.2-4.2c-0.1-0.1-0.1-0.3,0-0.5s0.2-0.3,0.4-0.3
			c2.7-0.6,4.9-0.9,6.4-0.9c0.8,0,1.4,0.1,1.9,0.2c0.4,0.1,0.8,0.4,0.9,0.9c0.1,0.4,0.1,0.9-0.2,1.2l-0.3,0.4
			C444.6,23.7,443.2,25.7,441.5,25.7L441.5,25.7z"/>
		<path class="st4" d="M443,20.1c0.8,0,1.4,0.1,1.8,0.2c0.6,0.2,0.8,0.8,0.5,1.3c-0.8,1.1-2.1,3.6-3.8,3.6c-0.3,0-0.5-0.1-0.8-0.2
			c-2-1-4-4-4-4C439.7,20.3,441.7,20.1,443,20.1 M443,19.1c-1.6,0-3.8,0.3-6.6,0.9c-0.3,0.1-0.6,0.3-0.7,0.6
			c-0.1,0.3-0.1,0.7,0.1,0.9c0.1,0.1,2.2,3.2,4.4,4.3c0.4,0.2,0.8,0.3,1.2,0.3c2,0,3.4-2.2,4.3-3.6c0.1-0.2,0.2-0.3,0.3-0.4
			c0.3-0.5,0.4-1.1,0.2-1.7c-0.2-0.6-0.7-1-1.2-1.2C444.5,19.2,443.9,19.1,443,19.1L443,19.1z"/>
	</g>
	<line class="st5" x1="437.2" y1="38.5" x2="427.2" y2="49.5"/>
	<path class="st5" d="M428.2,36.5"/>
	<circle class="st5" cx="428.7" cy="41" r="2.5"/>
	<circle class="st5" cx="436.7" cy="46" r="2.5"/>
	<path class="st6" d="M433.2,28.5c0,0,6-2,9-4"/>
	<g>
		<path class="st4" d="M468.4,35.1V34l1.2-0.2v-8l-1.2-0.2v-1.1h1.2h2.6l3.1,7.7l0,0l3-7.7h3.8v1.1l-1.2,0.2v8l1.2,0.2v1.1h-4.2V34
			l1.2-0.2v-2.5v-4.7l0,0l-3.3,8.3h-1.1l-3.4-8.2l0,0l0.1,4.5v2.6l1.3,0.2v1.1C472.7,35.1,468.4,35.1,468.4,35.1z"/>
		<path class="st4" d="M487,35.2c-0.7,0-1.4-0.2-2-0.5s-1-0.8-1.3-1.4c-0.3-0.6-0.5-1.3-0.5-2V31c0-0.8,0.2-1.5,0.5-2.1
			s0.7-1.1,1.2-1.4s1.1-0.5,1.8-0.5c0.7,0,1.3,0.1,1.8,0.4s0.9,0.7,1.1,1.2s0.4,1.2,0.4,1.9v1.1h-4.9l0,0c0,0.4,0.1,0.8,0.3,1.1
			c0.2,0.3,0.4,0.6,0.7,0.8c0.3,0.2,0.6,0.3,1,0.3s0.8-0.1,1.2-0.2s0.7-0.3,1-0.5l0.6,1.2c-0.3,0.3-0.7,0.5-1.2,0.7
			S487.7,35.2,487,35.2z M485.3,30.3h3.1v-0.2c0-0.3-0.1-0.7-0.2-0.9c-0.1-0.3-0.3-0.5-0.5-0.6s-0.5-0.2-0.8-0.2s-0.6,0.1-0.8,0.2
			s-0.4,0.4-0.5,0.7C485.4,29.6,485.3,29.9,485.3,30.3L485.3,30.3z"/>
		<path class="st4" d="M491.1,35.1V34l1.1-0.2V25l-1.2-0.2v-1.1h3v10.1l1.1,0.2v1.1H491.1z"/>
		<path class="st4" d="M495.9,35.1V34l1.1-0.2V25l-1.2-0.2v-1.1h3v4.5c0.3-0.4,0.6-0.7,1-0.9s0.8-0.3,1.3-0.3c0.8,0,1.5,0.3,1.9,0.8
			c0.5,0.5,0.7,1.3,0.7,2.4v3.5l1.1,0.2V35h-4v-1l1-0.2v-3.6c0-0.6-0.1-1-0.4-1.3s-0.6-0.4-1.1-0.4c-0.3,0-0.6,0.1-0.9,0.2
			s-0.5,0.4-0.7,0.6v4.4l1,0.2V35L495.9,35.1L495.9,35.1z"/>
		<path class="st4" d="M509.2,35.2c-0.8,0-1.4-0.2-2-0.5s-1-0.8-1.3-1.4c-0.3-0.6-0.4-1.3-0.4-2.1V31c0-0.8,0.1-1.5,0.4-2.1
			s0.7-1.1,1.3-1.4s1.2-0.5,1.9-0.5c0.8,0,1.4,0.2,2,0.5c0.5,0.3,1,0.8,1.3,1.4s0.4,1.3,0.4,2.1v0.2c0,0.8-0.1,1.5-0.4,2.1
			c-0.3,0.6-0.7,1.1-1.3,1.4C510.6,35.1,510,35.2,509.2,35.2z M509.2,33.8c0.4,0,0.7-0.1,1-0.3s0.5-0.5,0.6-0.9s0.2-0.8,0.2-1.4V31
			c0-0.5-0.1-1-0.2-1.3s-0.3-0.7-0.6-0.9s-0.6-0.3-1-0.3s-0.7,0.1-1,0.3s-0.5,0.5-0.6,0.9s-0.2,0.8-0.2,1.3v0.2c0,0.5,0.1,1,0.2,1.4
			s0.3,0.7,0.6,0.9C508.5,33.7,508.8,33.8,509.2,33.8z"/>
		<path class="st4" d="M514,35.1V34l1.1-0.2v-5.2l-1.2-0.2v-1.1h2.9l0.1,1v0.2c0.2-0.4,0.5-0.7,0.8-1s0.7-0.3,1.1-0.3
			c0.1,0,0.3,0,0.4,0c0.2,0,0.3,0.1,0.4,0.1l-0.2,1.7l-1-0.1c-0.3,0-0.6,0-0.8,0.2c-0.2,0.2-0.4,0.4-0.5,0.6v4.1l1.1,0.2v1.1H514z"
			/>
		<path class="st4" d="M524.1,35.1V34l1.2-0.2v-8l-1.2-0.2v-1.1h1.2h3.8c0.8,0,1.5,0.1,2,0.4c0.6,0.3,1,0.7,1.3,1.2s0.5,1.1,0.5,1.7
			s-0.2,1.2-0.5,1.7s-0.7,0.9-1.3,1.2c-0.6,0.3-1.3,0.4-2,0.4h-2v2.7l1.2,0.2v1.1H524.1z M527.1,29.6h2c0.7,0,1.1-0.2,1.5-0.5
			c0.4-0.3,0.5-0.8,0.5-1.3s-0.2-1-0.5-1.4s-0.8-0.5-1.5-0.5h-2V29.6z"/>
		<path class="st4" d="M533.8,35.1V34l1.1-0.2v-5.2l-1.2-0.2v-1.1h2.9l0.1,1v0.2c0.2-0.4,0.5-0.7,0.8-1s0.7-0.3,1.1-0.3
			c0.1,0,0.3,0,0.4,0c0.2,0,0.3,0.1,0.4,0.1l-0.2,1.7l-1-0.1c-0.3,0-0.6,0-0.8,0.2c-0.2,0.2-0.4,0.4-0.5,0.6v4.1L538,34v1.1H533.8z"
			/>
		<path class="st4" d="M543.7,35.2c-0.7,0-1.4-0.2-2-0.5s-1-0.8-1.3-1.4c-0.3-0.6-0.5-1.3-0.5-2V31c0-0.8,0.2-1.5,0.5-2.1
			s0.7-1.1,1.2-1.4s1.1-0.5,1.8-0.5s1.3,0.1,1.8,0.4s0.9,0.7,1.1,1.2s0.4,1.2,0.4,1.9v1.1h-4.9l0,0c0,0.4,0.1,0.8,0.3,1.1
			s0.4,0.6,0.7,0.8s0.6,0.3,1,0.3s0.8-0.1,1.2-0.2s0.7-0.3,1-0.5l0.6,1.2c-0.3,0.3-0.7,0.5-1.2,0.7S544.4,35.2,543.7,35.2z
			 M542,30.3h3.1v-0.2c0-0.3-0.1-0.7-0.2-0.9c-0.1-0.3-0.3-0.5-0.5-0.6s-0.5-0.2-0.8-0.2s-0.6,0.1-0.8,0.2s-0.4,0.4-0.5,0.7
			C542.1,29.6,542,29.9,542,30.3L542,30.3z"/>
		<path class="st4" d="M551.7,35.2c-0.7,0-1.4-0.2-1.9-0.5s-1-0.8-1.3-1.4c-0.3-0.6-0.4-1.3-0.4-2.1V31c0-0.8,0.1-1.5,0.4-2.1
			s0.7-1.1,1.3-1.4c0.5-0.3,1.2-0.5,1.9-0.5s1.3,0.1,1.8,0.3s0.9,0.5,1.2,0.8v2.1h-1.4l-0.3-1.4c-0.1-0.1-0.3-0.3-0.5-0.3
			s-0.4-0.1-0.7-0.1c-0.4,0-0.8,0.1-1,0.3c-0.3,0.2-0.5,0.5-0.7,0.9c-0.1,0.4-0.2,0.8-0.2,1.4v0.3c0,0.6,0.1,1,0.2,1.4
			s0.4,0.7,0.6,0.9c0.3,0.2,0.6,0.3,0.9,0.3c0.4,0,0.8-0.1,1-0.3c0.3-0.2,0.4-0.5,0.5-1h1.6l0,0c-0.1,0.5-0.2,1-0.5,1.4
			c-0.2,0.4-0.6,0.7-1,0.9C552.9,35.1,552.3,35.2,551.7,35.2z M550.8,38.4l-0.1-1c0.3,0,0.6-0.1,0.8-0.2s0.3-0.3,0.3-0.5
			s-0.1-0.4-0.3-0.5s-0.5-0.1-0.9-0.2l0.3-1.2h1.4l-0.1,0.6c0.3,0.1,0.6,0.2,0.8,0.4s0.3,0.5,0.3,0.9c0,0.5-0.2,0.9-0.7,1.2
			S551.6,38.4,550.8,38.4z"/>
		<path class="st4" d="M559.7,35.2c-0.8,0-1.4-0.2-2-0.5s-1-0.8-1.3-1.4c-0.3-0.6-0.4-1.3-0.4-2.1V31c0-0.8,0.1-1.5,0.4-2.1
			s0.7-1.1,1.3-1.4s1.2-0.5,1.9-0.5c0.8,0,1.4,0.2,2,0.5c0.5,0.3,1,0.8,1.3,1.4s0.4,1.3,0.4,2.1v0.2c0,0.8-0.1,1.5-0.4,2.1
			c-0.3,0.6-0.7,1.1-1.3,1.4C561.1,35.1,560.4,35.2,559.7,35.2z M559.7,33.8c0.4,0,0.7-0.1,1-0.3s0.5-0.5,0.6-0.9s0.2-0.8,0.2-1.4
			V31c0-0.5-0.1-1-0.2-1.3s-0.3-0.7-0.6-0.9s-0.6-0.3-1-0.3s-0.7,0.1-1,0.3s-0.5,0.5-0.6,0.9s-0.2,0.8-0.2,1.3v0.2
			c0,0.5,0.1,1,0.2,1.4c0.1,0.4,0.3,0.7,0.6,0.9C558.9,33.7,559.3,33.8,559.7,33.8z"/>
		<path class="st4" d="M571.2,35.2c-0.6,0-1.2-0.2-1.6-0.5s-0.8-0.8-1-1.4c-0.2-0.6-0.4-1.3-0.4-2v-0.2c0-0.8,0.1-1.6,0.4-2.2
			c0.2-0.6,0.6-1.1,1-1.5c0.5-0.4,1-0.5,1.6-0.5c0.5,0,0.9,0.1,1.2,0.3c0.3,0.2,0.6,0.4,0.9,0.7v-3l-1.2-0.2v-1.1h1.2h1.8v10.1
			l1.1,0.2V35h-2.7l-0.1-1c-0.2,0.4-0.6,0.6-0.9,0.8C572.1,35.2,571.6,35.2,571.2,35.2z M571.7,33.8c0.4,0,0.7-0.1,0.9-0.2
			c0.3-0.2,0.5-0.4,0.6-0.7v-3.5c-0.2-0.3-0.4-0.5-0.6-0.7c-0.3-0.2-0.6-0.2-0.9-0.2c-0.4,0-0.7,0.1-1,0.3c-0.3,0.2-0.4,0.6-0.6,1
			s-0.2,0.9-0.2,1.4v0.2c0,0.7,0.1,1.3,0.4,1.8C570.7,33.6,571.1,33.8,571.7,33.8z"/>
		<path class="st4" d="M580.7,35.2c-0.8,0-1.4-0.2-2-0.5s-1-0.8-1.3-1.4c-0.3-0.6-0.4-1.3-0.4-2.1V31c0-0.8,0.1-1.5,0.4-2.1
			s0.7-1.1,1.3-1.4s1.2-0.5,1.9-0.5c0.8,0,1.4,0.2,2,0.5c0.5,0.3,1,0.8,1.3,1.4s0.4,1.3,0.4,2.1v0.2c0,0.8-0.1,1.5-0.4,2.1
			c-0.3,0.6-0.7,1.1-1.3,1.4C582.1,35.1,581.4,35.2,580.7,35.2z M580.7,33.8c0.4,0,0.7-0.1,1-0.3s0.5-0.5,0.6-0.9s0.2-0.8,0.2-1.4
			V31c0-0.5-0.1-1-0.2-1.3s-0.3-0.7-0.6-0.9s-0.6-0.3-1-0.3s-0.7,0.1-1,0.3s-0.5,0.5-0.6,0.9s-0.2,0.8-0.2,1.3v0.2
			c0,0.5,0.1,1,0.2,1.4c0.1,0.4,0.3,0.7,0.6,0.9C579.9,33.7,580.3,33.8,580.7,33.8z"/>
		<path class="st4" d="M468.4,53.1V52l1.2-0.2v-8l-1.2-0.2v-1.1h1.2h2.6l3.1,7.7l0,0l3-7.7h3.8v1.1l-1.2,0.2v8l1.2,0.2v1.1h-4.2V52
			l1.2-0.2v-2.5v-4.7l0,0l-3.3,8.3h-1.1l-3.4-8.2l0,0l0.1,4.5v2.6l1.3,0.2v1.1C472.7,53.1,468.4,53.1,468.4,53.1z"/>
		<path class="st4" d="M487,53.2c-0.7,0-1.4-0.2-2-0.5s-1-0.8-1.3-1.4c-0.3-0.6-0.5-1.3-0.5-2V49c0-0.8,0.2-1.5,0.5-2.1
			s0.7-1.1,1.2-1.4c0.5-0.3,1.1-0.5,1.8-0.5c0.7,0,1.3,0.1,1.8,0.4s0.9,0.7,1.1,1.2s0.4,1.2,0.4,1.9v1.1h-4.9l0,0
			c0,0.4,0.1,0.8,0.3,1.1c0.2,0.3,0.4,0.6,0.7,0.8c0.3,0.2,0.6,0.3,1,0.3s0.8-0.1,1.2-0.2s0.7-0.3,1-0.5l0.6,1.2
			c-0.3,0.3-0.7,0.5-1.2,0.7S487.7,53.2,487,53.2z M485.3,48.3h3.1v-0.2c0-0.3-0.1-0.7-0.2-0.9c-0.1-0.3-0.3-0.5-0.5-0.6
			s-0.5-0.2-0.8-0.2s-0.6,0.1-0.8,0.2s-0.4,0.4-0.5,0.7C485.4,47.6,485.3,47.9,485.3,48.3L485.3,48.3z"/>
		<path class="st4" d="M491.3,53.1V52l1.1-0.2v-5.2l-1.2-0.2v-1.1h2.9l0.1,1v0.2c0.2-0.4,0.5-0.7,0.8-1s0.7-0.3,1.1-0.3
			c0.1,0,0.3,0,0.4,0c0.2,0,0.3,0.1,0.4,0.1l-0.2,1.7l-1-0.1c-0.3,0-0.6,0-0.8,0.2s-0.4,0.4-0.5,0.6v4.1l1.1,0.2v1.1H491.3z"/>
		<path class="st4" d="M501.1,53.2c-0.7,0-1.4-0.2-1.9-0.5s-1-0.8-1.3-1.4c-0.3-0.6-0.4-1.3-0.4-2.1V49c0-0.8,0.1-1.5,0.4-2.1
			s0.7-1.1,1.3-1.4c0.5-0.3,1.2-0.5,1.9-0.5c0.7,0,1.3,0.1,1.8,0.3s0.9,0.5,1.2,0.8v2.1h-1.4l-0.3-1.4c-0.1-0.1-0.3-0.3-0.5-0.3
			c-0.2-0.1-0.4-0.1-0.7-0.1c-0.4,0-0.8,0.1-1,0.3c-0.3,0.2-0.5,0.5-0.7,0.9c-0.1,0.4-0.2,0.8-0.2,1.4v0.3c0,0.6,0.1,1,0.2,1.4
			s0.4,0.7,0.6,0.9c0.3,0.2,0.6,0.3,0.9,0.3c0.4,0,0.8-0.1,1-0.3c0.3-0.2,0.4-0.5,0.5-1h1.6l0,0c-0.1,0.5-0.2,1-0.5,1.4
			c-0.2,0.4-0.6,0.7-1,0.9C502.4,53.1,501.8,53.2,501.1,53.2z"/>
		<path class="st4" d="M508.1,53.2c-0.8,0-1.4-0.2-1.9-0.6s-0.7-1-0.7-1.7c0-0.5,0.1-0.9,0.4-1.3c0.3-0.4,0.7-0.7,1.2-0.9
			s1.2-0.3,1.9-0.3h1.2v-0.7c0-0.4-0.1-0.8-0.4-1s-0.6-0.4-1.1-0.4c-0.3,0-0.5,0-0.7,0.1s-0.4,0.2-0.6,0.3l-0.2,1.1h-1.4v-2
			c0.4-0.3,0.8-0.5,1.3-0.6s1-0.2,1.6-0.2c1,0,1.8,0.2,2.4,0.7s0.9,1.1,0.9,2v3.5c0,0.1,0,0.2,0,0.3s0,0.2,0,0.3l0.8,0.1V53h-2.4
			c0-0.2-0.1-0.3-0.1-0.5s-0.1-0.3-0.1-0.5c-0.3,0.3-0.6,0.6-1,0.8C509,53.1,508.5,53.2,508.1,53.2z M508.5,51.8
			c0.4,0,0.7-0.1,1-0.3s0.6-0.4,0.7-0.7v-1.3H509c-0.6,0-1,0.1-1.2,0.4c-0.3,0.3-0.4,0.6-0.4,0.9c0,0.3,0.1,0.5,0.3,0.7
			S508.1,51.8,508.5,51.8z"/>
		<path class="st4" d="M516.9,53.2c-0.6,0-1.2-0.2-1.6-0.5c-0.4-0.3-0.8-0.8-1-1.4c-0.2-0.6-0.4-1.3-0.4-2v-0.2
			c0-0.8,0.1-1.6,0.4-2.2c0.2-0.6,0.6-1.1,1-1.5c0.5-0.4,1-0.5,1.6-0.5c0.5,0,0.9,0.1,1.2,0.3s0.6,0.4,0.9,0.7v-3l-1.2-0.2v-1.1h1.2
			h1.8v10.1l1.1,0.2V53h-2.7l-0.1-1c-0.2,0.4-0.6,0.6-0.9,0.8C517.8,53.2,517.4,53.2,516.9,53.2z M517.5,51.8c0.4,0,0.7-0.1,0.9-0.2
			c0.3-0.2,0.5-0.4,0.6-0.7v-3.5c-0.2-0.3-0.4-0.5-0.6-0.7c-0.3-0.2-0.6-0.2-0.9-0.2c-0.4,0-0.7,0.1-1,0.3s-0.4,0.6-0.6,1
			c-0.1,0.4-0.2,0.9-0.2,1.4v0.2c0,0.7,0.1,1.3,0.4,1.8C516.4,51.6,516.9,51.8,517.5,51.8z"/>
		<path class="st4" d="M526.4,53.2c-0.8,0-1.4-0.2-2-0.5c-0.5-0.3-1-0.8-1.3-1.4c-0.3-0.6-0.4-1.3-0.4-2.1V49c0-0.8,0.1-1.5,0.4-2.1
			s0.7-1.1,1.3-1.4s1.2-0.5,1.9-0.5c0.8,0,1.4,0.2,2,0.5c0.5,0.3,1,0.8,1.3,1.4c0.3,0.6,0.4,1.3,0.4,2.1v0.2c0,0.8-0.1,1.5-0.4,2.1
			s-0.7,1.1-1.3,1.4C527.8,53.1,527.2,53.2,526.4,53.2z M526.4,51.8c0.4,0,0.7-0.1,1-0.3s0.5-0.5,0.6-0.9c0.1-0.4,0.2-0.8,0.2-1.4
			V49c0-0.5-0.1-1-0.2-1.3c-0.1-0.3-0.3-0.7-0.6-0.9c-0.3-0.2-0.6-0.3-1-0.3c-0.4,0-0.7,0.1-1,0.3s-0.5,0.5-0.6,0.9
			c-0.1,0.4-0.2,0.8-0.2,1.3v0.2c0,0.5,0.1,1,0.2,1.4c0.1,0.4,0.3,0.7,0.6,0.9S526,51.8,526.4,51.8z"/>
	</g>
	<polyline class="st7" points="897.7,50 905.7,63 907.7,58 913.7,59 905.2,44.5 	"/>
	<polyline class="st7" points="883.2,45.5 875.2,58.5 881.2,58.5 883.2,63.5 892.2,48.5 	"/>
	<circle class="st8" cx="895.2" cy="35.5" r="8"/>
	<polygon class="st8" points="895.6,52.8 891.8,48.4 886.5,50.7 885.5,45.1 879.8,44.4 881.7,39 877.1,35.6 881.4,31.8 879.1,26.5 
		884.8,25.5 885.4,19.8 890.8,21.7 894.3,17.1 898,21.4 903.3,19.1 904.4,24.8 910,25.4 908.2,30.8 912.8,34.3 908.4,38 910.7,43.3 
		905.1,44.4 904.4,50 899,48.2 	"/>
	<g>
		<path class="st4" d="M939.8,37.4l-2.8-2c-0.2,0.1-0.4,0.1-0.6,0.1c-0.2,0-0.4,0-0.7,0c-0.7,0-1.3-0.1-1.9-0.4
			c-0.6-0.3-1.1-0.6-1.5-1.1s-0.7-1.1-0.9-1.7c-0.2-0.7-0.3-1.4-0.3-2.2V30c0-0.8,0.1-1.5,0.3-2.2s0.5-1.2,0.9-1.7s0.9-0.9,1.5-1.1
			c0.6-0.3,1.2-0.4,1.9-0.4s1.4,0.1,1.9,0.4c0.6,0.3,1.1,0.6,1.5,1.1s0.7,1.1,0.9,1.7c0.2,0.7,0.3,1.4,0.3,2.2v0.2
			c0,0.9-0.1,1.8-0.4,2.6c-0.3,0.8-0.7,1.4-1.4,1.9l2.2,1.4L939.8,37.4z M935.6,34.1c0.6,0,1.2-0.2,1.6-0.5c0.4-0.3,0.7-0.8,0.9-1.4
			s0.3-1.3,0.3-2.1V30c0-0.8-0.1-1.5-0.3-2s-0.5-1-0.9-1.4s-1-0.5-1.6-0.5s-1.1,0.2-1.5,0.5s-0.7,0.8-0.9,1.4s-0.3,1.3-0.3,2v0.2
			c0,0.8,0.1,1.5,0.3,2.1s0.5,1.1,0.9,1.4C934.5,34,935,34.1,935.6,34.1z"/>
		<path class="st4" d="M944.8,35.6c-0.8,0-1.5-0.3-2-0.8s-0.7-1.4-0.7-2.5v-3.4l-0.9-0.2v-1.1h0.9h1.8v4.8c0,0.7,0.1,1.2,0.3,1.4
			c0.2,0.3,0.6,0.4,1,0.4s0.7-0.1,1-0.2c0.3-0.2,0.5-0.4,0.7-0.7v-4.4l-1-0.2v-1.1h1h1.8v6.6l0.9,0.2v1.1H947l-0.1-1.1
			c-0.2,0.4-0.6,0.7-0.9,0.9C945.7,35.5,945.3,35.6,944.8,35.6z"/>
		<path class="st4" d="M953.3,35.6c-0.8,0-1.4-0.2-1.9-0.6s-0.7-1-0.7-1.7c0-0.5,0.1-0.9,0.4-1.3s0.7-0.7,1.2-0.9s1.2-0.3,1.9-0.3
			h1.2v-0.7c0-0.4-0.1-0.8-0.4-1c-0.3-0.2-0.6-0.4-1.1-0.4c-0.3,0-0.5,0-0.7,0.1s-0.4,0.2-0.6,0.3l-0.2,1.1H951v-2
			c0.4-0.3,0.8-0.5,1.3-0.6s1-0.2,1.6-0.2c1,0,1.8,0.2,2.4,0.7c0.6,0.5,0.9,1.1,0.9,2v3.5c0,0.1,0,0.2,0,0.3s0,0.2,0,0.3l0.8,0.1
			v1.1h-2.4c0-0.2-0.1-0.3-0.1-0.5s-0.1-0.3-0.1-0.5c-0.3,0.3-0.6,0.6-1,0.8C954.2,35.5,953.7,35.6,953.3,35.6z M953.7,34.2
			c0.4,0,0.7-0.1,1-0.3s0.6-0.4,0.7-0.7v-1.3h-1.2c-0.6,0-1,0.1-1.2,0.4c-0.3,0.3-0.4,0.6-0.4,0.9c0,0.3,0.1,0.5,0.3,0.7
			S953.3,34.2,953.7,34.2z"/>
		<path class="st4" d="M959,35.4v-1.1l1.1-0.2v-8.7l-1.2-0.2V24h3v10.1l1.1,0.2v1.1C963,35.4,959,35.4,959,35.4z"/>
		<path class="st4" d="M963.8,35.4v-1.1l1.1-0.2v-5.2l-1.2-0.2v-1.1h3v6.6l1.1,0.2v1.1L963.8,35.4L963.8,35.4z M964.9,25.7V24h1.9
			v1.7H964.9z"/>
		<path class="st4" d="M971.8,35.6c-0.6,0-1.2-0.2-1.6-0.5s-0.8-0.8-1-1.4c-0.2-0.6-0.4-1.3-0.4-2v-0.2c0-0.8,0.1-1.6,0.4-2.2
			c0.2-0.6,0.6-1.1,1-1.5c0.5-0.4,1-0.5,1.6-0.5c0.5,0,0.9,0.1,1.2,0.3c0.3,0.2,0.6,0.4,0.9,0.7v-3l-1.2-0.2V24h1.2h1.8v10.1
			l1.1,0.2v1.1h-2.7l-0.1-1c-0.2,0.4-0.6,0.6-0.9,0.8C972.7,35.5,972.3,35.6,971.8,35.6z M972.3,34.1c0.4,0,0.7-0.1,0.9-0.2
			c0.3-0.2,0.5-0.4,0.6-0.7v-3.5c-0.2-0.3-0.4-0.5-0.6-0.7c-0.3-0.2-0.6-0.2-0.9-0.2c-0.4,0-0.7,0.1-1,0.3c-0.3,0.2-0.4,0.6-0.6,1
			c-0.1,0.4-0.2,0.9-0.2,1.4v0.2c0,0.7,0.1,1.3,0.4,1.8C971.3,33.9,971.7,34.1,972.3,34.1z"/>
		<path class="st4" d="M980.3,35.6c-0.8,0-1.4-0.2-1.9-0.6s-0.7-1-0.7-1.7c0-0.5,0.1-0.9,0.4-1.3s0.7-0.7,1.2-0.9s1.2-0.3,1.9-0.3
			h1.2v-0.7c0-0.4-0.1-0.8-0.4-1s-0.6-0.4-1.1-0.4c-0.3,0-0.5,0-0.7,0.1s-0.4,0.2-0.6,0.3l-0.2,1.1H978v-2c0.4-0.3,0.8-0.5,1.3-0.6
			s1-0.2,1.6-0.2c1,0,1.8,0.2,2.4,0.7s0.9,1.1,0.9,2v3.5c0,0.1,0,0.2,0,0.3s0,0.2,0,0.3l0.8,0.1v1.1h-2.4c0-0.2-0.1-0.3-0.1-0.5
			s-0.1-0.3-0.1-0.5c-0.3,0.3-0.6,0.6-1,0.8C981.2,35.5,980.7,35.6,980.3,35.6z M980.7,34.2c0.4,0,0.7-0.1,1-0.3s0.6-0.4,0.7-0.7
			v-1.3h-1.2c-0.6,0-1,0.1-1.2,0.4c-0.3,0.3-0.4,0.6-0.4,0.9c0,0.3,0.1,0.5,0.3,0.7S980.3,34.2,980.7,34.2z"/>
		<path class="st4" d="M989.1,35.6c-0.6,0-1.2-0.2-1.6-0.5s-0.8-0.8-1-1.4c-0.2-0.6-0.4-1.3-0.4-2v-0.2c0-0.8,0.1-1.6,0.4-2.2
			c0.2-0.6,0.6-1.1,1-1.5c0.5-0.4,1-0.5,1.6-0.5c0.5,0,0.9,0.1,1.2,0.3c0.3,0.2,0.6,0.4,0.9,0.7v-3l-1.2-0.2V24h1.2h1.8v10.1
			l1.1,0.2v1.1h-2.7l-0.1-1c-0.2,0.4-0.6,0.6-0.9,0.8C990,35.5,989.6,35.6,989.1,35.6z M989.7,34.1c0.4,0,0.7-0.1,0.9-0.2
			c0.3-0.2,0.5-0.4,0.6-0.7v-3.5c-0.2-0.3-0.4-0.5-0.6-0.7c-0.3-0.2-0.6-0.2-0.9-0.2c-0.4,0-0.7,0.1-1,0.3c-0.3,0.2-0.4,0.6-0.6,1
			c-0.1,0.4-0.2,0.9-0.2,1.4v0.2c0,0.7,0.1,1.3,0.4,1.8C988.6,33.9,989,34.1,989.7,34.1z"/>
		<path class="st4" d="M998.7,35.6c-0.7,0-1.4-0.2-2-0.5s-1-0.8-1.3-1.4c-0.3-0.6-0.5-1.3-0.5-2v-0.3c0-0.8,0.2-1.5,0.5-2.1
			s0.7-1.1,1.2-1.4s1.1-0.5,1.8-0.5c0.7,0,1.3,0.1,1.8,0.4s0.9,0.7,1.1,1.2s0.4,1.2,0.4,1.9V32h-4.9l0,0c0,0.4,0.1,0.8,0.3,1.1
			c0.2,0.3,0.4,0.6,0.7,0.8c0.3,0.2,0.6,0.3,1,0.3s0.8-0.1,1.2-0.2s0.7-0.3,1-0.5l0.6,1.2c-0.3,0.3-0.7,0.5-1.2,0.7
			S999.3,35.6,998.7,35.6z M996.9,30.7h3.1v-0.2c0-0.3-0.1-0.7-0.2-0.9c-0.1-0.3-0.3-0.5-0.5-0.6s-0.5-0.2-0.8-0.2s-0.6,0.1-0.8,0.2
			s-0.4,0.4-0.5,0.7C997,30,996.9,30.3,996.9,30.7L996.9,30.7z"/>
		<path class="st4" d="M935.9,53.6c-1,0-1.9-0.2-2.6-0.7c-0.7-0.4-1.3-1.1-1.7-1.9c-0.4-0.8-0.6-1.7-0.6-2.8V48c0-1.1,0.2-2,0.6-2.8
			c0.4-0.8,0.9-1.4,1.7-1.9c0.7-0.5,1.5-0.7,2.5-0.7c0.8,0,1.5,0.1,2.1,0.3s1.2,0.5,1.6,0.9v2.3h-1.4l-0.2-1.5
			c-0.2-0.2-0.5-0.3-0.8-0.4s-0.7-0.1-1.2-0.1c-0.6,0-1.1,0.2-1.6,0.5s-0.8,0.8-1.1,1.4c-0.3,0.6-0.4,1.3-0.4,2.1v0.3
			c0,0.8,0.1,1.5,0.4,2c0.2,0.6,0.6,1,1.1,1.3s1,0.5,1.7,0.5c0.4,0,0.8,0,1.1-0.1s0.6-0.2,0.8-0.3v-2.1l-1.7-0.1v-1.3h3.6v4.2
			c-0.4,0.3-0.9,0.6-1.5,0.8C937.5,53.5,936.8,53.6,935.9,53.6z"/>
		<path class="st4" d="M943.8,53.6c-0.8,0-1.4-0.2-1.9-0.6s-0.7-1-0.7-1.7c0-0.5,0.1-0.9,0.4-1.3c0.3-0.4,0.7-0.7,1.2-0.9
			s1.2-0.3,1.9-0.3h1.2v-0.7c0-0.4-0.1-0.8-0.4-1c-0.3-0.2-0.6-0.4-1.1-0.4c-0.3,0-0.5,0-0.7,0.1s-0.4,0.2-0.6,0.3l-0.2,1.1h-1.2v-2
			c0.4-0.3,0.8-0.5,1.3-0.6s1-0.2,1.6-0.2c1,0,1.8,0.2,2.4,0.7c0.6,0.5,0.9,1.1,0.9,2v3.5c0,0.1,0,0.2,0,0.3s0,0.2,0,0.3l0.8,0.1
			v1.1h-2.4c0-0.2-0.1-0.3-0.1-0.5s-0.1-0.3-0.1-0.5c-0.3,0.3-0.6,0.6-1,0.8C944.7,53.5,944.3,53.6,943.8,53.6z M944.2,52.2
			c0.4,0,0.7-0.1,1-0.3s0.6-0.4,0.7-0.7v-1.3h-1.2c-0.6,0-1,0.1-1.2,0.4c-0.3,0.3-0.4,0.6-0.4,0.9c0,0.3,0.1,0.5,0.3,0.7
			S943.9,52.2,944.2,52.2z"/>
		<path class="st4" d="M949.7,53.4v-1.1l1.1-0.2v-5.2l-1.2-0.2v-1.1h2.9l0.1,1v0.2c0.2-0.4,0.5-0.7,0.8-1c0.3-0.2,0.7-0.3,1.1-0.3
			c0.1,0,0.3,0,0.4,0c0.2,0,0.3,0.1,0.4,0.1l-0.2,1.7l-1-0.1c-0.3,0-0.6,0-0.8,0.2s-0.4,0.4-0.5,0.6v4.1l1.1,0.2v1.1H949.7z"/>
		<path class="st4" d="M958.6,53.6c-0.8,0-1.4-0.2-1.9-0.6s-0.7-1-0.7-1.7c0-0.5,0.1-0.9,0.4-1.3c0.3-0.4,0.7-0.7,1.2-0.9
			s1.2-0.3,1.9-0.3h1.2v-0.7c0-0.4-0.1-0.8-0.4-1c-0.3-0.2-0.6-0.4-1.1-0.4c-0.3,0-0.5,0-0.7,0.1s-0.4,0.2-0.6,0.3l-0.2,1.1h-1.4v-2
			c0.4-0.3,0.8-0.5,1.3-0.6s1-0.2,1.6-0.2c1,0,1.8,0.2,2.4,0.7c0.6,0.5,0.9,1.1,0.9,2v3.5c0,0.1,0,0.2,0,0.3s0,0.2,0,0.3l0.8,0.1
			v1.1h-2.4c0-0.2-0.1-0.3-0.1-0.5s-0.1-0.3-0.1-0.5c-0.3,0.3-0.6,0.6-1,0.8C959.5,53.5,959,53.6,958.6,53.6z M959,52.2
			c0.4,0,0.7-0.1,1-0.3s0.6-0.4,0.7-0.7v-1.3h-1.2c-0.6,0-1,0.1-1.2,0.4c-0.3,0.3-0.4,0.6-0.4,0.9c0,0.3,0.1,0.5,0.3,0.7
			S958.6,52.2,959,52.2z"/>
		<path class="st4" d="M964.3,53.4v-1.1l1.1-0.2v-5.2l-1.2-0.2v-1.1h2.9l0.1,1.1c0.3-0.4,0.6-0.7,1-1c0.4-0.2,0.8-0.3,1.3-0.3
			c0.8,0,1.4,0.3,1.9,0.8s0.7,1.3,0.7,2.3v3.6l1.1,0.2v1.1h-4v-1.1l1-0.2v-3.6c0-0.6-0.1-1-0.4-1.3c-0.2-0.3-0.6-0.4-1.1-0.4
			c-0.4,0-0.7,0.1-0.9,0.2c-0.3,0.2-0.5,0.4-0.6,0.7v4.4l1,0.2v1.1H964.3z"/>
		<path class="st4" d="M976.8,53.6c-0.7,0-1.2-0.2-1.6-0.6c-0.4-0.4-0.6-1-0.6-1.8v-4.4h-1.2v-1.3h1.2v-1.9h1.8v1.9h1.6v1.3h-1.6
			v4.4c0,0.3,0.1,0.6,0.2,0.7c0.1,0.2,0.3,0.2,0.6,0.2c0.1,0,0.3,0,0.5,0s0.3,0,0.4-0.1l0.2,1.3c-0.2,0.1-0.5,0.1-0.7,0.2
			C977.3,53.5,977,53.6,976.8,53.6z"/>
		<path class="st4" d="M979.1,53.4v-1.1l1.1-0.2v-5.2l-1.2-0.2v-1.1h3v6.6l1.1,0.2v1.1L979.1,53.4L979.1,53.4z M980.1,43.7V42h1.9
			v1.7H980.1z"/>
		<path class="st4" d="M987.1,53.6c-0.6,0-1.2-0.2-1.6-0.5s-0.8-0.8-1-1.4c-0.2-0.6-0.4-1.3-0.4-2v-0.2c0-0.8,0.1-1.6,0.4-2.2
			c0.2-0.6,0.6-1.1,1-1.5c0.5-0.4,1-0.5,1.6-0.5c0.5,0,0.9,0.1,1.2,0.3c0.3,0.2,0.6,0.4,0.9,0.7v-3l-1.2-0.2V42h1.2h1.8v10.1
			l1.1,0.2v1.1h-2.7l-0.1-1c-0.2,0.4-0.6,0.6-0.9,0.8C988,53.5,987.6,53.6,987.1,53.6z M987.6,52.1c0.4,0,0.7-0.1,0.9-0.2
			c0.3-0.2,0.5-0.4,0.6-0.7v-3.5c-0.2-0.3-0.4-0.5-0.6-0.7c-0.3-0.2-0.6-0.2-0.9-0.2c-0.4,0-0.7,0.1-1,0.3s-0.4,0.6-0.6,1
			c-0.1,0.4-0.2,0.9-0.2,1.4v0.2c0,0.7,0.1,1.3,0.4,1.8C986.6,51.9,987,52.1,987.6,52.1z"/>
		<path class="st4" d="M995.6,53.6c-0.8,0-1.4-0.2-1.9-0.6s-0.7-1-0.7-1.7c0-0.5,0.1-0.9,0.4-1.3c0.3-0.4,0.7-0.7,1.2-0.9
			s1.2-0.3,1.9-0.3h1.2v-0.7c0-0.4-0.1-0.8-0.4-1s-0.6-0.4-1.1-0.4c-0.3,0-0.5,0-0.7,0.1s-0.4,0.2-0.6,0.3l-0.2,1.1h-1.4v-2
			c0.4-0.3,0.8-0.5,1.3-0.6s1-0.2,1.6-0.2c1,0,1.8,0.2,2.4,0.7s0.9,1.1,0.9,2v3.5c0,0.1,0,0.2,0,0.3s0,0.2,0,0.3l0.8,0.1v1.1h-2.4
			c0-0.2-0.1-0.3-0.1-0.5s-0.1-0.3-0.1-0.5c-0.3,0.3-0.6,0.6-1,0.8C996.4,53.5,996,53.6,995.6,53.6z M996,52.2c0.4,0,0.7-0.1,1-0.3
			s0.6-0.4,0.7-0.7v-1.3h-1.2c-0.6,0-1,0.1-1.2,0.4c-0.3,0.3-0.4,0.6-0.4,0.9c0,0.3,0.1,0.5,0.3,0.7S995.6,52.2,996,52.2z"/>
	</g>
	<g>
		<path class="st4" d="M702.1,33.6v-1.1l1.2-0.2v-8l-1.2-0.2V23h8.1v2.7h-1.4l-0.1-1.3h-3.6v3h3.7v1.4h-3.7v3.4h3.8l0.1-1.4h1.4v2.8
			C710.4,33.6,702.1,33.6,702.1,33.6z"/>
		<path class="st4" d="M715,33.8c-0.6,0-1.1-0.1-1.6-0.2c-0.5-0.1-1-0.3-1.5-0.5V31h1.3l0.3,1.1c0.2,0.1,0.4,0.2,0.6,0.2
			c0.2,0.1,0.5,0.1,0.7,0.1c0.5,0,0.9-0.1,1.1-0.3c0.2-0.2,0.3-0.4,0.3-0.7s-0.1-0.5-0.3-0.7s-0.7-0.4-1.3-0.5
			c-0.9-0.2-1.6-0.5-2.1-0.9c-0.4-0.4-0.7-0.9-0.7-1.5c0-0.4,0.1-0.8,0.3-1.2c0.2-0.4,0.6-0.6,1-0.8c0.5-0.2,1-0.3,1.7-0.3
			c0.6,0,1.1,0.1,1.6,0.2s0.9,0.3,1.2,0.5v2h-1.3l-0.2-1c-0.2-0.1-0.3-0.2-0.5-0.2c-0.2-0.1-0.4-0.1-0.7-0.1c-0.4,0-0.7,0.1-1,0.3
			s-0.4,0.4-0.4,0.7c0,0.2,0,0.3,0.1,0.4s0.2,0.2,0.4,0.3c0.2,0.1,0.5,0.2,1,0.3c1,0.2,1.8,0.6,2.2,0.9s0.7,0.9,0.7,1.5
			c0,0.7-0.3,1.3-0.8,1.7C716.9,33.6,716.1,33.8,715,33.8z"/>
		<path class="st4" d="M719.1,36.7v-1.1l1.1-0.2v-8.3l-1.2-0.2v-1.1h2.8l0.1,0.9c0.2-0.3,0.5-0.6,0.9-0.8s0.8-0.3,1.2-0.3
			c0.6,0,1.2,0.2,1.7,0.5c0.5,0.4,0.8,0.8,1.1,1.5c0.2,0.6,0.4,1.4,0.4,2.2V30c0,0.8-0.1,1.4-0.4,2c-0.2,0.6-0.6,1-1.1,1.4
			c-0.5,0.3-1,0.5-1.7,0.5c-0.5,0-0.9-0.1-1.2-0.2c-0.3-0.2-0.6-0.4-0.9-0.7v2.5l1.1,0.2v1.1h-3.9V36.7z M723.6,32.4
			c0.6,0,1.1-0.2,1.3-0.7c0.3-0.4,0.4-1,0.4-1.8v-0.2c0-0.5-0.1-1-0.2-1.4c-0.1-0.4-0.3-0.7-0.6-1c-0.3-0.2-0.6-0.3-1-0.3
			c-0.3,0-0.6,0.1-0.9,0.2c-0.3,0.2-0.5,0.4-0.6,0.6v3.6c0.2,0.3,0.4,0.5,0.6,0.6C722.9,32.3,723.2,32.4,723.6,32.4z"/>
		<path class="st4" d="M732.1,33.8c-0.7,0-1.4-0.2-2-0.5s-1-0.8-1.3-1.4c-0.3-0.6-0.5-1.3-0.5-2v-0.3c0-0.8,0.2-1.5,0.5-2.1
			s0.7-1.1,1.2-1.4s1.1-0.5,1.8-0.5s1.3,0.1,1.8,0.4s0.9,0.7,1.1,1.2s0.4,1.2,0.4,1.9v1.1h-4.9l0,0c0,0.4,0.1,0.8,0.3,1.1
			c0.2,0.3,0.4,0.6,0.7,0.8s0.6,0.3,1,0.3s0.8-0.1,1.2-0.2s0.7-0.3,1-0.5l0.6,1.2c-0.3,0.3-0.7,0.5-1.2,0.7S732.8,33.8,732.1,33.8z
			 M730.4,28.9h3.1v-0.2c0-0.3-0.1-0.7-0.2-0.9c-0.1-0.3-0.3-0.5-0.5-0.6S732.3,27,732,27s-0.6,0.1-0.8,0.2s-0.4,0.4-0.5,0.7
			C730.5,28.2,730.4,28.5,730.4,28.9L730.4,28.9z"/>
		<path class="st4" d="M740.1,33.8c-0.7,0-1.4-0.2-1.9-0.5s-1-0.8-1.3-1.4c-0.3-0.6-0.4-1.3-0.4-2.1v-0.3c0-0.8,0.1-1.5,0.4-2.1
			s0.7-1.1,1.3-1.4c0.5-0.3,1.2-0.5,1.9-0.5s1.3,0.1,1.8,0.3c0.5,0.2,0.9,0.5,1.2,0.8v2.1h-1.4l-0.3-1.4c-0.1-0.1-0.3-0.3-0.5-0.3
			s-0.4-0.1-0.7-0.1c-0.4,0-0.8,0.1-1,0.3c-0.3,0.2-0.5,0.5-0.7,0.9c-0.1,0.4-0.2,0.8-0.2,1.4v0.3c0,0.6,0.1,1,0.2,1.4
			s0.4,0.7,0.6,0.9c0.3,0.2,0.6,0.3,0.9,0.3c0.4,0,0.8-0.1,1-0.3c0.3-0.2,0.4-0.5,0.5-1h1.6l0,0c-0.1,0.5-0.2,1-0.5,1.4
			c-0.2,0.4-0.6,0.7-1,0.9C741.3,33.7,740.8,33.8,740.1,33.8z"/>
		<path class="st4" d="M744.3,33.6v-1.1l1.1-0.2v-5.2l-1.2-0.2v-1.1h3v6.6l1.1,0.2v1.1L744.3,33.6L744.3,33.6z M745.3,23.9v-1.7h1.9
			v1.7H745.3z"/>
		<path class="st4" d="M751.8,33.8c-0.8,0-1.4-0.2-1.9-0.6s-0.7-1-0.7-1.7c0-0.5,0.1-0.9,0.4-1.3s0.7-0.7,1.2-0.9
			c0.5-0.2,1.2-0.3,1.9-0.3h1.2v-0.7c0-0.4-0.1-0.8-0.4-1c-0.3-0.2-0.6-0.4-1.1-0.4c-0.3,0-0.5,0-0.7,0.1s-0.4,0.2-0.6,0.3l-0.2,1.1
			h-1.2v-2c0.4-0.3,0.8-0.5,1.3-0.6s1-0.2,1.6-0.2c1,0,1.8,0.2,2.4,0.7c0.6,0.5,0.9,1.1,0.9,2v3.5c0,0.1,0,0.2,0,0.3s0,0.2,0,0.3
			l0.8,0.1v1.1h-2.4c0-0.2-0.1-0.3-0.1-0.5s-0.1-0.3-0.1-0.5c-0.3,0.3-0.6,0.6-1,0.8C752.7,33.7,752.2,33.8,751.8,33.8z M752.2,32.4
			c0.4,0,0.7-0.1,1-0.3s0.6-0.4,0.7-0.7v-1.3h-1.2c-0.6,0-1,0.1-1.2,0.4c-0.3,0.3-0.4,0.6-0.4,0.9s0.1,0.5,0.3,0.7
			S751.8,32.4,752.2,32.4z"/>
		<path class="st4" d="M757.5,33.6v-1.1l1.1-0.2v-8.7l-1.2-0.2v-1.1h3v10.1l1.1,0.2v1.1L757.5,33.6L757.5,33.6z"/>
		<path class="st4" d="M762.3,33.6v-1.1l1.1-0.2v-5.2l-1.2-0.2v-1.1h3v6.6l1.1,0.2v1.1L762.3,33.6L762.3,33.6z M763.4,23.9v-1.7h1.9
			v1.7H763.4z"/>
		<path class="st4" d="M770.5,33.8c-0.6,0-1.1-0.1-1.6-0.2c-0.5-0.1-1-0.3-1.5-0.5V31h1.3l0.3,1.1c0.2,0.1,0.4,0.2,0.6,0.2
			c0.2,0.1,0.5,0.1,0.7,0.1c0.5,0,0.9-0.1,1.1-0.3c0.2-0.2,0.3-0.4,0.3-0.7s-0.1-0.5-0.3-0.7s-0.7-0.4-1.3-0.5
			c-0.9-0.2-1.6-0.5-2.1-0.9c-0.4-0.4-0.7-0.9-0.7-1.5c0-0.4,0.1-0.8,0.3-1.2c0.2-0.4,0.6-0.6,1-0.8c0.5-0.2,1-0.3,1.7-0.3
			c0.6,0,1.1,0.1,1.6,0.2s0.9,0.3,1.2,0.5v2h-1.3l-0.2-1c-0.2-0.1-0.3-0.2-0.5-0.2c-0.2-0.1-0.4-0.1-0.7-0.1c-0.4,0-0.7,0.1-1,0.3
			s-0.4,0.4-0.4,0.7c0,0.2,0,0.3,0.1,0.4s0.2,0.2,0.4,0.3c0.2,0.1,0.5,0.2,1,0.3c1,0.2,1.8,0.6,2.2,0.9s0.7,0.9,0.7,1.5
			c0,0.7-0.3,1.3-0.8,1.7C772.4,33.6,771.6,33.8,770.5,33.8z"/>
		<path class="st4" d="M777.8,33.8c-0.7,0-1.2-0.2-1.6-0.6c-0.4-0.4-0.6-1-0.6-1.8V27h-1.2v-1.3h1.2v-1.9h1.8v1.9h1.6V27h-1.6v4.4
			c0,0.3,0.1,0.6,0.2,0.7c0.1,0.2,0.3,0.2,0.6,0.2c0.1,0,0.3,0,0.5,0s0.3,0,0.4-0.1l0.2,1.3c-0.2,0.1-0.5,0.1-0.7,0.2
			C778.3,33.8,778,33.8,777.8,33.8z"/>
		<path class="st4" d="M782.8,33.8c-0.8,0-1.4-0.2-1.9-0.6s-0.7-1-0.7-1.7c0-0.5,0.1-0.9,0.4-1.3s0.7-0.7,1.2-0.9
			c0.5-0.2,1.2-0.3,1.9-0.3h1.2v-0.7c0-0.4-0.1-0.8-0.4-1c-0.3-0.2-0.6-0.4-1.1-0.4c-0.3,0-0.5,0-0.7,0.1s-0.4,0.2-0.6,0.3l-0.2,1.1
			h-1.2v-2c0.4-0.3,0.8-0.5,1.3-0.6s1-0.2,1.6-0.2c1,0,1.8,0.2,2.4,0.7c0.6,0.5,0.9,1.1,0.9,2v3.5c0,0.1,0,0.2,0,0.3s0,0.2,0,0.3
			l0.8,0.1v1.1h-2.4c0-0.2-0.1-0.3-0.1-0.5s-0.1-0.3-0.1-0.5c-0.3,0.3-0.6,0.6-1,0.8C783.7,33.7,783.3,33.8,782.8,33.8z M783.2,32.4
			c0.4,0,0.7-0.1,1-0.3s0.6-0.4,0.7-0.7v-1.3h-1.2c-0.6,0-1,0.1-1.2,0.4c-0.3,0.3-0.4,0.6-0.4,0.9s0.1,0.5,0.3,0.7
			S782.9,32.4,783.2,32.4z"/>
		<path class="st4" d="M791.9,33.8c-0.6,0-1.1-0.1-1.6-0.2c-0.5-0.1-1-0.3-1.5-0.5V31h1.3l0.3,1.1c0.2,0.1,0.4,0.2,0.6,0.2
			c0.2,0.1,0.5,0.1,0.7,0.1c0.5,0,0.9-0.1,1.1-0.3c0.2-0.2,0.3-0.4,0.3-0.7s-0.1-0.5-0.3-0.7s-0.7-0.4-1.3-0.5
			c-0.9-0.2-1.6-0.5-2.1-0.9c-0.4-0.4-0.7-0.9-0.7-1.5c0-0.4,0.1-0.8,0.3-1.2c0.2-0.4,0.6-0.6,1-0.8c0.5-0.2,1-0.3,1.7-0.3
			c0.6,0,1.1,0.1,1.6,0.2s0.9,0.3,1.2,0.5v2h-1.3l-0.2-1c-0.2-0.1-0.3-0.2-0.5-0.2c-0.2-0.1-0.4-0.1-0.7-0.1c-0.4,0-0.7,0.1-1,0.3
			s-0.4,0.4-0.4,0.7c0,0.2,0,0.3,0.1,0.4s0.2,0.2,0.4,0.3c0.2,0.1,0.5,0.2,1,0.3c1,0.2,1.8,0.6,2.2,0.9s0.7,0.9,0.7,1.5
			c0,0.7-0.3,1.3-0.8,1.7C793.8,33.6,793,33.8,791.9,33.8z"/>
		<path class="st4" d="M706.7,51.8c-0.7,0-1.3-0.1-1.9-0.4c-0.6-0.3-1.1-0.6-1.5-1.1s-0.7-1.1-0.9-1.7c-0.2-0.7-0.3-1.4-0.3-2.2
			v-0.2c0-0.8,0.1-1.5,0.3-2.2s0.5-1.2,0.9-1.7s0.9-0.9,1.5-1.1c0.6-0.3,1.2-0.4,1.9-0.4s1.4,0.1,2,0.4c0.6,0.3,1.1,0.6,1.5,1.1
			s0.7,1.1,0.9,1.7c0.2,0.7,0.3,1.4,0.3,2.2v0.2c0,0.8-0.1,1.5-0.3,2.2s-0.5,1.2-0.9,1.7s-0.9,0.9-1.5,1.1
			C708.1,51.7,707.5,51.8,706.7,51.8z M706.7,50.3c0.6,0,1.2-0.2,1.6-0.5c0.4-0.3,0.7-0.8,0.9-1.4c0.2-0.6,0.3-1.3,0.3-2.1v-0.2
			c0-0.8-0.1-1.5-0.3-2s-0.5-1-0.9-1.4c-0.4-0.3-0.9-0.5-1.6-0.5c-0.6,0-1.1,0.2-1.5,0.5s-0.7,0.8-0.9,1.4s-0.3,1.3-0.3,2v0.2
			c0,0.8,0.1,1.5,0.3,2.1s0.5,1.1,0.9,1.4C705.6,50.2,706.1,50.3,706.7,50.3z"/>
		<path class="st4" d="M712.4,51.6v-1.1l1.1-0.2v-5.2l-1.2-0.2v-1.1h2.9l0.1,1.1c0.3-0.4,0.6-0.7,1-1c0.4-0.2,0.8-0.3,1.3-0.3
			c0.8,0,1.4,0.3,1.9,0.8s0.7,1.3,0.7,2.3v3.6l1.1,0.2v1.1h-4v-1.1l1-0.2v-3.6c0-0.6-0.1-1-0.4-1.3c-0.2-0.3-0.6-0.4-1.1-0.4
			c-0.4,0-0.7,0.1-0.9,0.2c-0.3,0.2-0.5,0.4-0.6,0.7v4.4l1,0.2v1.1H712.4z"/>
		<path class="st4" d="M722,51.6v-1.1l1.1-0.2v-8.7l-1.2-0.2v-1.1h3v10.1l1.1,0.2v1.1h-4V51.6z"/>
		<path class="st4" d="M726.9,51.6v-1.1l1.1-0.2v-5.2l-1.2-0.2v-1.1h3v6.6l1.1,0.2v1.1L726.9,51.6L726.9,51.6z M727.9,41.9v-1.7h1.9
			v1.7H727.9z"/>
		<path class="st4" d="M731.7,51.6v-1.1l1.1-0.2v-5.2l-1.2-0.2v-1.1h2.9l0.1,1.1c0.3-0.4,0.6-0.7,1-1c0.4-0.2,0.8-0.3,1.3-0.3
			c0.8,0,1.4,0.3,1.9,0.8s0.7,1.3,0.7,2.3v3.6l1.1,0.2v1.1h-4v-1.1l1-0.2v-3.6c0-0.6-0.1-1-0.4-1.3c-0.2-0.3-0.6-0.4-1.1-0.4
			c-0.4,0-0.7,0.1-0.9,0.2c-0.3,0.2-0.5,0.4-0.6,0.7v4.4l1,0.2v1.1H731.7z"/>
		<path class="st4" d="M745.1,51.8c-0.7,0-1.4-0.2-2-0.5s-1-0.8-1.3-1.4c-0.3-0.6-0.5-1.3-0.5-2v-0.3c0-0.8,0.2-1.5,0.5-2.1
			s0.7-1.1,1.2-1.4c0.5-0.3,1.1-0.5,1.8-0.5s1.3,0.1,1.8,0.4c0.5,0.3,0.9,0.7,1.1,1.2c0.2,0.5,0.4,1.2,0.4,1.9v1.1h-4.9l0,0
			c0,0.4,0.1,0.8,0.3,1.1s0.4,0.6,0.7,0.8s0.6,0.3,1,0.3s0.8-0.1,1.2-0.2s0.7-0.3,1-0.5l0.6,1.2c-0.3,0.3-0.7,0.5-1.2,0.7
			S745.8,51.8,745.1,51.8z M743.4,46.9h3.1v-0.2c0-0.3-0.1-0.7-0.2-0.9c-0.1-0.3-0.3-0.5-0.5-0.6S745.3,45,745,45s-0.6,0.1-0.8,0.2
			s-0.4,0.4-0.5,0.7C743.5,46.2,743.4,46.5,743.4,46.9L743.4,46.9z"/>
	</g>
	<path class="st4" d="M656.2,36h-12c-0.3,0-0.5-0.2-0.5-0.5l0,0c0-0.3,0.2-0.5,0.5-0.5h12c0.3,0,0.5,0.2,0.5,0.5l0,0
		C656.7,35.8,656.5,36,656.2,36z"/>
	<path class="st4" d="M665.7,42h-21c-0.5,0-1-0.5-1-1l0,0c0-0.5,0.5-1,1-1h21c0.5,0,1,0.5,1,1l0,0C666.7,41.5,666.2,42,665.7,42z"/>
	<path class="st4" d="M665.7,47h-21c-0.5,0-1-0.5-1-1l0,0c0-0.5,0.5-1,1-1h21c0.5,0,1,0.5,1,1l0,0C666.7,46.5,666.2,47,665.7,47z"/>
	<path class="st9" d="M669.7,54h-15.1l-7.4,8.5l-0.1-8.5h-5.7c-2.2,0-4-1.8-4-4V31.5c0-2.2,1.8-4,4-4h28.3c2.2,0,4,1.8,4,4V50
		C673.7,52.2,671.9,54,669.7,54z"/>
	<path class="st10" d="M648.2,27.5v-5c0-2.2,1.8-4,4-4h29c2.2,0,4,1.8,4,4v18c0,2.2-1.8,4-4,4h-1.9l-0.1,9l-5-5"/>
</g>
</svg>
