<?xml version="1.0" encoding="utf-8"?>
<!-- Generator: Adobe Illustrator 24.0.1, SVG Export Plug-In . SVG Version: 6.00 Build 0)  -->
<svg version="1.1" id="Camada_1" xmlns="http://www.w3.org/2000/svg" xmlns:xlink="http://www.w3.org/1999/xlink" x="0px" y="0px"
	 viewBox="0 0 512 512" style="enable-background:new 0 0 512 512;" xml:space="preserve">
<style type="text/css">
	.st0{fill:#5F41A6;}
	.st1{fill:#8257E5;}
	.st2{fill:#64B5F6;}
	.st3{fill:#0E0E0F;}
</style>
<path class="st0" d="M186.7,64c0-35.3,28.7-64,64-64H464c7,0,13.6,3.5,17.6,9.2s4.9,13.2,2.3,19.7L329.3,434.3
	c-3.1,8.3-11.1,13.7-19.9,13.7h-58.7c-35.3,0-64-28.7-64-64V64z"/>
<path class="st1" d="M314.7,85.3v384c0,14.7,11.9,26.7,26.7,26.7c3,0,5.8-0.4,8.5-1.3l128-42.7c10.5-3.6,18.1-13.7,18.1-25.4v-384
	c0-14.7-11.9-26.7-26.7-26.7c-3,0-5.8,0.4-8.5,1.3l-128,42.7C322.3,63.6,314.7,73.6,314.7,85.3z"/>
<path class="st2" d="M298.7,85.3c0-18.2,11.6-34.5,28.9-40.5L455.7,2.1c29-8.9,56.3,12.5,56.3,40.6v384c0,18.2-11.6,34.5-28.9,40.5
	l-128.2,42.7c-4.7,1.5-9,2.1-13.6,2.1c-23.5,0-42.7-19.1-42.7-42.7 M469.3,32c-1.3,0-2.5,0.2-3.8,0.6L337.9,75.1
	c-4.2,1.4-7.2,5.7-7.2,10.2v384c0,7.2,7.6,12.2,14.5,10.1l127.6-42.6c4.2-1.4,7.2-5.7,7.2-10.2v-384C480,36.8,475.2,32,469.3,32z"/>
<path class="st3" d="M218.7,240H16c-8.8,0-16-7.2-16-16s7.2-16,16-16h202.7c8.8,0,16,7.2,16,16S227.5,240,218.7,240z"/>
<path class="st3" d="M138.7,320c-4.1,0-8.2-1.6-11.3-4.7c-6.3-6.3-6.3-16.4,0-22.6l68.7-68.7l-68.7-68.7c-6.3-6.3-6.3-16.4,0-22.6
	s16.4-6.3,22.6,0l80,80c6.3,6.3,6.3,16.4,0,22.6l-80,80C146.9,318.4,142.8,320,138.7,320z"/>
<path class="st3" d="M341.3,512c-23.5,0-42.7-19.1-42.7-42.7v-384c0-18.2,11.6-34.5,28.9-40.5L455.7,2.1
	C484.4-6.7,512,14.6,512,42.7v384c0,18.2-11.6,34.5-28.9,40.5L354.9,510C350.3,511.4,345.9,512,341.3,512z M469.3,32
	c-1.4,0-2.6,0.2-3.8,0.6L337.9,75.1c-4.2,1.5-7.2,5.7-7.2,10.2v384c0,7.3,7.9,12.2,14.5,10.1l127.6-42.6c4.2-1.5,7.2-5.7,7.2-10.2
	v-384C480,36.8,475.2,32,469.3,32z"/>
<path class="st3" d="M186.7,106.7c-8.8,0-16-7.2-16-16v-32C170.7,26.3,197,0,229.3,0h240c8.8,0,16,7.2,16,16s-7.2,16-16,16h-240
	c-14.7,0-26.7,12-26.7,26.7v32C202.7,99.5,195.5,106.7,186.7,106.7z"/>
<path class="st3" d="M314.7,448h-85.3c-32.4,0-58.7-26.3-58.7-58.7v-32c0-8.8,7.2-16,16-16s16,7.2,16,16v32
	c0,14.7,12,26.7,26.7,26.7h85.3c8.8,0,16,7.2,16,16S323.5,448,314.7,448z"/>
</svg>
