<svg width="512" height="320" viewBox="0 0 512 320" fill="none" xmlns="http://www.w3.org/2000/svg">
<path d="M416.667 128.936C408.966 128.936 401.478 129.86 394.302 131.592L356.387 40.596L389.278 29.633C397.137 27.013 401.384 18.518 398.764 10.659C396.144 2.80101 387.654 -1.44999 379.79 1.17301L330.565 17.624C322.918 20.811 319.302 29.592 322.488 37.239L331.913 59.858L200.44 94.04L186.936 62.536H207.8C216.084 62.536 222.8 55.82 222.8 47.536C222.8 39.252 216.084 32.536 207.8 32.536H143.533C135.249 32.536 128.533 39.252 128.533 47.536C128.533 55.82 135.249 62.536 143.533 62.536H154.296L174.268 109.13L145.196 143.048C130.68 134.104 113.6 128.936 95.334 128.936C42.767 128.936 0 171.702 0 224.269C0 276.836 42.767 319.602 95.333 319.602C142.797 319.602 182.266 284.734 189.482 239.269H239.932C244.724 239.269 249.228 236.979 252.052 233.106L348.808 100.411L366.62 143.161C339.462 159.979 321.331 190.044 321.331 224.268C321.331 276.835 364.097 319.601 416.664 319.601C469.231 319.601 512 276.836 512 224.269C512 171.702 469.233 128.936 416.667 128.936V128.936ZM95.333 289.603C59.309 289.603 30 260.294 30 224.269C30 188.244 59.309 158.936 95.333 158.936C106.135 158.936 116.324 161.587 125.309 166.249L83.944 214.508C80.131 218.956 79.257 225.216 81.705 230.538C84.153 235.86 89.475 239.27 95.333 239.27H158.908C152.11 268.085 126.196 289.603 95.333 289.603V289.603ZM127.947 209.269L187.439 139.861L217.185 209.269H127.947ZM243.339 194.138L212.393 121.929L315.548 95.108L243.339 194.138ZM416.667 289.603C380.642 289.603 351.334 260.294 351.334 224.27C351.334 202.539 362.009 183.264 378.379 171.38L402.82 230.039C406.006 237.686 414.789 241.302 422.435 238.116C430.082 234.929 433.698 226.148 430.512 218.501L406.058 159.811C409.513 159.244 413.053 158.936 416.666 158.936C452.691 158.936 481.999 188.245 481.999 224.269C481.999 260.293 452.691 289.603 416.667 289.603V289.603Z" fill="#FAFAFA"/>
</svg>
